# xmcd
#
# Track frame offsets:
#	150
#	12422
#	24410
#	36285
#	47865
#	58877
#	71092
#	82430
#	93837
#	106312
#	118160
#	130505
#	141522
#	154145
#	165457
#	177762
#
# Disc length: 2518 seconds
#
# Revision: 1
# Processed by: cddbd v1.5.2PL0 Copyright (c) Steve Scherf et al.
# Submitted via: audiograbber 1.83.01
#
DISCID=e009d410
DTITLE=Lester Flatt, Earl Scruggs and The Foggy Mountain Boys - Foggy Mountain Br
DTITLE=eakdown
DYEAR=1992
DGENRE=Bluegrass
TTITLE0=Foggy Mountain Breakdown
TTITLE1=Roll In My Sweet Baby's Arms
TTITLE2=My Cabin In Caroline
TTITLE3=Will The Roses Bloom (Where She Lies Sleeping)
TTITLE4=Preachin', Prayin', Singin'
TTITLE5=Why Don't You Tell Me So
TTITLE6=I'll Just Pretend
TTITLE7=So Happy I'll Be
TTITLE8=Pike County Breakdown
TTITLE9=Is It Too Late Now
TTITLE10=My Little Girl In Tennessee
TTITLE11=I'll Never Shed Another Tear
TTITLE12=Pain In My Heart
TTITLE13=Old Salty Dog Blues
TTITLE14=We'll Meet Again Sweetheart
TTITLE15=Farewell Blues
EXTD=
EXTT0=
EXTT1=
EXTT2=
EXTT3=
EXTT4=
EXTT5=
EXTT6=
EXTT7=
EXTT8=
EXTT9=
EXTT10=
EXTT11=
EXTT12=
EXTT13=
EXTT14=
EXTT15=
PLAYORDER=
